#!OML:ASF F:\VICON\USERDATA\INSTALL\rory3\rory3.ASF
:FULLY-SPECIFIED
:DEGREES
289
root -0.840428 22.216 8.08885 -166.911 2.21155 180.263
lowerback 9.45933 -1.72911 -6.26215
upperback 1.23933 -2.76481 1.84756
thorax -3.61506 -1.23895 5.80089
lowerneck -14.9021 -1.50856 -7.27106
upperneck 40.8364 5.55376 0.163673
head 17.4471 2.59841 2.86554
rclavicle 2.73329e-015 -1.39149e-015
rhumerus -29.9951 -3.43601 -76.3527
rradius 45.6227
rwrist 16.5392
rhand -20.3347 1.41331
rfingers 7.12502
rthumb 6.01672 -28.4813
lclavicle 2.73329e-015 -1.39149e-015
lhumerus -25.4347 1.56117 78.7707
lradius 46.1596
lwrist 1.30437
lhand -13.2173 24.6487
lfingers 7.12502
lthumb 12.8837 54.231
rfemur -69.9626 -4.90579 27.3257
rtibia 82.4614
rfoot -15.6302 10.1066
rtoes -8.40061
lfemur -14.1416 6.63291 -25.6356
ltibia 13.5789
lfoot 3.04812 -10.449
ltoes -13.4269
290
root -0.832444 22.2059 8.03913 -166.97 2.0145 180.154
lowerback 9.39187 -1.77078 -6.38196
upperback 1.29096 -2.82262 1.89526
thorax -3.50635 -1.27082 5.9208
lowerneck -14.8564 -1.51428 -7.37007
upperneck 40.7546 5.57412 0.117007
head 17.3899 2.58693 2.85927
rclavicle 1.70955e-014 1.59028e-014
rhumerus -29.9956 -3.7592 -76.2663
rradius 45.4169
rwrist 16.5699
rhand -20.1403 0.923396
rfingers 7.12502
rthumb 6.20435 -28.9657
lclavicle 1.70955e-014 1.59028e-014
lhumerus -25.1872 1.68261 78.9322
lradius 45.9599
lwrist 1.18183
lhand -13.2702 25.2539
lfingers 7.12502
lthumb 12.8328 54.8394
rfemur -69.7185 -4.84783 27.2699
rtibia 81.7625
rfoot -15.5855 9.88634
rtoes -7.96766
lfemur -14.0382 6.59452 -25.7101
ltibia 13.9014
lfoot 2.67099 -10.6009
ltoes -13.5554
291
root -0.822956 22.2004 7.98975 -166.973 1.89307 180.184
lowerback 9.25268 -1.78996 -6.36048
upperback 1.31498 -2.83518 1.936
thorax -3.40071 -1.28231 5.94528
lowerneck -14.7869 -1.51537 -7.52376
upperneck 40.7191 5.54724 0.264772
head 17.3414 2.57618 2.94397
rclavicle -2.3556e-014 9.54166e-015
rhumerus -30.1192 -3.96135 -76.2525
rradius 45.2862
rwrist 16.4036
rhand -20.1403 0.834302
rfingers 7.12502
rthumb 6.20438 -29.0548
lclavicle -2.3556e-014 9.54166e-015
lhumerus -24.9848 1.76568 78.99
lradius 45.7687
lwrist 1.14471
lhand -13.3452 25.364
lfingers 7.12502
lthumb 12.7604 54.9541
rfemur -69.4875 -4.6802 27.3711
rtibia 81.0918
rfoot -15.5181 9.36894
rtoes -8.30577
lfemur -13.9909 6.60118 -25.6508
ltibia 14.2305
lfoot 2.2072 -10.6655
ltoes -14.3404
292
root -0.808956 22.1855 7.94339 -167.044 1.78725 180.141
lowerback 9.27745 -1.74455 -6.42146
upperback 1.29163 -2.78495 1.91364
thorax -3.44463 -1.25463 5.953
lowerneck -14.7033 -1.58276 -7.46716
upperneck 40.7876 5.45373 0.27791
head 17.3642 2.55847 2.9274
rclavicle 2.45499e-014 -1.98785e-015
rhumerus -30.4067 -4.31962 -76.244
rradius 45.1781
rwrist 16.3298
rhand -20.2421 1.02709
rfingers 7.12502
rthumb 6.10611 -28.8649
lclavicle 2.45499e-014 -1.98785e-015
lhumerus -24.9368 1.73387 79.0151
lradius 45.7876
lwrist 1.17021
lhand -13.7277 24.2565
lfingers 7.12502
lthumb 12.3917 53.8693
rfemur -69.2082 -4.51326 27.3947
rtibia 80.5367
rfoot -15.3534 8.99657
rtoes -8.46492
lfemur -13.8913 6.64413 -25.6274
ltibia 14.5377
lfoot 1.91742 -10.7952
ltoes -14.6381
293
root -0.796091 22.1625 7.89946 -167.113 1.61676 179.924
lowerback 9.37467 -1.73878 -6.61469
upperback 1.25078 -2.80765 1.85848
thorax -3.53164 -1.25945 6.01314
lowerneck -14.6681 -1.65369 -7.32123
upperneck 40.9048 5.4007 0.169136
head 17.4347 2.55333 2.85204
rclavicle 1.68967e-014 7.35503e-015
rhumerus -30.6137 -4.7038 -76.2246
rradius 44.9391
rwrist 16.4849
rhand -20.2657 1.30893
rfingers 7.12502
rthumb 6.08328 -28.5837
lclavicle 1.68967e-014 7.35503e-015
lhumerus -24.9748 1.74572 79.0689
lradius 45.9198
lwrist 1.25238
lhand -14.9699 21.6922
lfingers 7.12502
lthumb 11.1938 51.3736
rfemur -68.9748 -4.4008 27.1806
rtibia 80.0969
rfoot -14.9607 8.98756
rtoes -6.69789
lfemur -13.8725 6.49256 -25.7605
ltibia 14.9083
lfoot 1.65487 -10.8485
ltoes -13.9414
294
root -0.787536 22.1384 7.8487 -167.085 1.45215 179.751
lowerback 9.27946 -1.81261 -6.71585
upperback 1.21929 -2.91471 1.83643
thorax -3.49165 -1.31368 6.05497
lowerneck -14.7537 -1.65462 -7.33854
upperneck 41.0518 5.47701 0.161227
head 17.5394 2.58168 2.87819
rclavicle -2.62396e-014 1.5704e-014
rhumerus -30.6938 -5.02502 -76.2519
rradius 44.6743
rwrist 16.7274
rhand -20.0557 1.22544
rfingers 7.12502
rthumb 6.28604 -28.6613
lclavicle -2.62396e-014 1.5704e-014
lhumerus -25.0395 1.97295 79.1103
lradius 46.0393
lwrist 1.34229
lhand -14.8661 22.0392
lfingers 7.12502
lthumb 11.2939 51.7151
rfemur -68.7891 -4.27933 27.005
rtibia 79.7602
rfoot -14.7401 8.86941
rtoes -5.42223
lfemur -13.9826 6.23269 -25.855
ltibia 15.3489
lfoot 1.37687 -10.7767
ltoes -12.6517
295
root -0.780734 22.1197 7.79318 -167.035 1.34003 179.731
lowerback 9.09011 -1.86407 -6.64269
upperback 1.20779 -2.96591 1.85351
thorax -3.3934 -1.34521 6.02738
lowerneck -14.768 -1.6265 -7.38537
upperneck 41.0574 5.59103 0.0774418
head 17.5466 2.61163 2.87067
rclavicle 3.1408e-014 -1.70955e-014
rhumerus -30.7885 -5.29087 -76.2428
rradius 44.4381
rwrist 16.8151
rhand -19.8863 1.25851
rfingers 7.12502
rthumb 6.44963 -28.6233
lclavicle 3.1408e-014 -1.70955e-014
lhumerus -25.017 2.22091 79.179
lradius 45.986
lwrist 1.45198
lhand -13.2479 25.6266
lfingers 7.12502
lthumb 12.8542 55.2108
rfemur -68.5779 -4.18284 27.0712
rtibia 79.4959
rfoot -14.5389 8.64585
rtoes -3.75405
lfemur -14.0193 6.1208 -25.8219
ltibia 15.7344
lfoot 1.05135 -10.7645
ltoes -12.5399
296
root -0.770731 22.1028 7.73864 -167.043 1.30912 179.624
lowerback 9.01122 -1.83616 -6.70068
upperback 1.16348 -2.93531 1.82035
thorax -3.39953 -1.32938 6.01955
lowerneck -14.6723 -1.63366 -7.37359
upperneck 41.0727 5.61905 0.0334512
head 17.5331 2.6294 2.85407
rclavicle -1.09829e-014 1.02374e-014
rhumerus -31.0465 -5.49087 -76.2527
rradius 44.2548
rwrist 16.7932
rhand -19.9374 1.45199
rfingers 7.12502
rthumb 6.40023 -28.4313
lclavicle -1.09829e-014 1.02374e-014
lhumerus -25.1293 2.42773 79.2468
lradius 46.0701
lwrist 1.44973
lhand -12.021 28.0657
lfingers 7.12502
lthumb 14.0367 57.5717
rfemur -68.3349 -4.08181 27.1406
rtibia 79.3374
rfoot -14.4307 8.05895
rtoes -0.17765
lfemur -13.9518 6.11011 -25.8865
ltibia 16.0887
lfoot 0.694452 -10.8086
ltoes -12.8897
297
root -0.760474 22.085 7.68624 -167.011 1.31843 179.375
lowerback 8.86078 -1.77686 -6.8789
upperback 1.16314 -2.86922 1.7249
thorax -3.32218 -1.29879 6.00544
lowerneck -14.7015 -1.67427 -7.40446
upperneck 41.0973 5.54053 0.121058
head 17.5527 2.60583 2.88828
rclavicle 2.4202e-014 5.26779e-015
rhumerus -31.1949 -5.80725 -76.3033
rradius 44.0696
rwrist 16.8413
rhand -19.939 1.39525
rfingers 7.12502
rthumb 6.39866 -28.4881
lclavicle 2.4202e-014 5.26779e-015
lhumerus -25.22 2.57309 79.3101
lradius 46.304
lwrist 1.57376
lhand -11.4101 29.186
lfingers 7.12502
lthumb 14.6254 58.6503
rfemur -68.1456 -3.97944 27.0516
rtibia 79.312
rfoot -14.6968 7.03956
rtoes 3.27134
lfemur -14.0201 6.02389 -26.1032
ltibia 16.5039
lfoot 0.40031 -10.7747
ltoes -12.7187
298
root -0.75201 22.0791 7.63586 -166.978 1.24238 179.207
lowerback 8.75289 -1.78859 -6.91819
upperback 1.19958 -2.88217 1.64554
thorax -3.22397 -1.30994 5.93839
lowerneck -14.8057 -1.67025 -7.40888
upperneck 41.0313 5.49281 0.167731
head 17.54 2.58374 2.89912
rclavicle 4.67144e-015 3.97569e-016
rhumerus -31.1926 -6.00341 -76.4255
rradius 43.8437
rwrist 16.7818
rhand -19.8431 1.24635
rfingers 7.12502
rthumb 6.49125 -28.6342
lclavicle 4.67144e-015 3.97569e-016
lhumerus -25.2058 2.79752 79.3038
lradius 46.4239
lwrist 1.93215
lhand -11.0724 29.7561
lfingers 7.12502
lthumb 14.9508 59.1965
rfemur -67.8731 -3.92795 27.035
rtibia 79.3437
rfoot -15.4178 5.78945
rtoes 3.97639
lfemur -14.0635 5.91596 -26.228
ltibia 16.8993
lfoot 0.14679 -10.7603
ltoes -12.8356
299
root -0.741524 22.0782 7.58293 -166.941 1.05155 179.065
lowerback 8.72041 -1.81454 -6.9176
upperback 1.14337 -2.92152 1.58511
thorax -3.26229 -1.3278 5.8782
lowerneck -14.7836 -1.69798 -7.40126
upperneck 41.0648 5.43766 0.228677
head 17.5526 2.57543 2.91816
rclavicle 4.97459e-014 -1.61016e-014
rhumerus -31.3257 -6.27555 -76.4891
rradius 43.5042
rwrist 16.8709
rhand -19.8626 1.41192
rfingers 7.12502
rthumb 6.47244 -28.4692
lclavicle 4.97459e-014 -1.61016e-014
lhumerus -25.3239 2.87072 79.3473
lradius 46.5362
lwrist 2.42861
lhand -11.0011 29.4696
lfingers 7.12502
lthumb 15.0194 58.9049
rfemur -67.5696 -3.99722 27.0983
rtibia 79.43
rfoot -16.2448 4.73095
rtoes 3.98028
lfemur -14.0411 5.94621 -26.3278
ltibia 17.2457
lfoot -0.187505 -11.055
ltoes -14.4843
300
root -0.72951 22.0726 7.52795 -166.912 0.909106 178.909
lowerback 8.65041 -1.82243 -6.9957
upperback 1.10986 -2.93858 1.56555
thorax -3.25297 -1.3359 5.90109
lowerneck -14.8265 -1.74319 -7.39989
upperneck 41.1633 5.43126 0.198653
head 17.6245 2.57252 2.91244
rclavicle -2.6339e-014 7.95139e-015
rhumerus -31.391 -6.49404 -76.5206
rradius 43.1478
rwrist 17.0409
rhand -19.8938 1.49839
rfingers 7.12502
rthumb 6.44237 -28.3836
lclavicle -2.6339e-014 7.95139e-015
lhumerus -25.4783 2.98203 79.4421
lradius 46.8196
lwrist 3.09238
lhand -10.659 29.103
lfingers 7.12502
lthumb 15.3489 58.5133
rfemur -67.3117 -4.03789 27.1523
rtibia 79.5578
rfoot -16.7262 4.23304
rtoes 5.21139
lfemur -14.0343 6.00002 -26.4291
ltibia 17.5863
lfoot -0.369462 -11.3544
ltoes -15.2198
301
root -0.716968 22.0697 7.47706 -166.875 0.840112 178.776
lowerback 8.64788 -1.79821 -7.07503
upperback 1.05017 -2.91951 1.53814
thorax -3.31467 -1.32236 5.91712
lowerneck -14.7805 -1.79208 -7.44694
upperneck 41.1674 5.37699 0.203954
head 17.6176 2.54927 2.91355
rclavicle 2.31584e-014 -2.08724e-015
rhumerus -31.5188 -6.70756 -76.5616
rradius 42.794
rwrist 17.1907
rhand -19.9193 1.68105
rfingers 7.12502
rthumb 6.4177 -28.2017
lclavicle 2.31584e-014 -2.08724e-015
lhumerus -25.724 3.06708 79.5172
lradius 47.178
lwrist 3.80962
lhand -10.1471 29.237
lfingers 7.12502
lthumb 15.842 58.6089
rfemur -67.0832 -3.98053 27.2312
rtibia 79.6691
rfoot -17.1458 3.9156
rtoes 5.64325
lfemur -14.0898 6.11811 -26.5
ltibia 17.9558
lfoot -0.409493 -11.7114
ltoes -15.8454
302
root -0.703453 22.0669 7.4284 -166.793 0.823206 178.586
lowerback 8.61846 -1.75552 -7.16325
upperback 1.01797 -2.87478 1.44799
thorax -3.33929 -1.29786 5.86702
lowerneck -14.8335 -1.82535 -7.50408
upperneck 41.1448 5.28408 0.311176
head 17.6153 2.51435 2.95545
rclavicle -3.13086e-015 2.48481e-015
rhumerus -31.5167 -6.91526 -76.6597
rradius 42.3281
rwrist 17.2569
rhand -19.9732 1.67345
rfingers 7.12502
rthumb 6.36568 -28.2109
lclavicle -3.13086e-015 2.48481e-015
lhumerus -25.8932 3.10395 79.557
lradius 47.4641
lwrist 4.42966
lhand -9.66854 29.4226
lfingers 7.12502
lthumb 16.3028 58.7573
rfemur -66.9287 -3.89091 27.2445
rtibia 79.7747
rfoot -17.8049 3.50858
rtoes 5.93923
lfemur -14.1474 6.24795 -26.633
ltibia 18.2366
lfoot -0.450013 -12.0015
ltoes -16.2609
